HIERARCHY
ROOT Hips
{
	OFFSET 0 93.02 0
	CHANNELS 6 Xposition Yposition Zposition Yrotation Xrotation Zrotation 
	JOINT RightUpLeg
	{
		OFFSET -9.25 -1.59 0
		CHANNELS 6 Xposition Yposition Zposition Yrotation Xrotation Zrotation 
		JOINT RightLeg
		{
			OFFSET 0 -41.87 0
			CHANNELS 6 Xposition Yposition Zposition Yrotation Xrotation Zrotation 
			JOINT RightFoot
			{
				OFFSET 0 -41.87 0
				CHANNELS 6 Xposition Yposition Zposition Yrotation Xrotation Zrotation 
				End Site
				{
					OFFSET 0 -7.69 17.5
				}
			}
		}
	}
	JOINT LeftUpLeg
	{
		OFFSET 9.25 -1.59 0
		CHANNELS 6 Xposition Yposition Zposition Yrotation Xrotation Zrotation 
		JOINT LeftLeg
		{
			OFFSET 0 -41.87 0
			CHANNELS 6 Xposition Yposition Zposition Yrotation Xrotation Zrotation 
			JOINT LeftFoot
			{
				OFFSET 0 -41.87 0
				CHANNELS 6 Xposition Yposition Zposition Yrotation Xrotation Zrotation 
				End Site
				{
					OFFSET 0 -7.69 17.5
				}
			}
		}
	}
	JOINT Spine
	{
		OFFSET 0 14.307 0
		CHANNELS 6 Xposition Yposition Zposition Yrotation Xrotation Zrotation 
		JOINT Spine1
		{
			OFFSET 0 9.718 0
			CHANNELS 6 Xposition Yposition Zposition Yrotation Xrotation Zrotation 
			JOINT Spine2
			{
				OFFSET 0 10.12 0
				CHANNELS 6 Xposition Yposition Zposition Yrotation Xrotation Zrotation 
				JOINT Spine3
				{
					OFFSET 0 9.718 0
					CHANNELS 6 Xposition Yposition Zposition Yrotation Xrotation Zrotation 
					JOINT Neck
					{
						OFFSET 0 10.387 0
						CHANNELS 6 Xposition Yposition Zposition Yrotation Xrotation Zrotation 
						JOINT Head
						{
							OFFSET 0 9.47 0
							CHANNELS 6 Xposition Yposition Zposition Yrotation Xrotation Zrotation 
							End Site
							{
								OFFSET 0 15.95 0
							}
						}
					}
					JOINT RightShoulder
					{
						OFFSET -3.2 6.925 0
						CHANNELS 6 Xposition Yposition Zposition Yrotation Xrotation Zrotation 
						JOINT RightArm
						{
							OFFSET -12.8 0 0
							CHANNELS 6 Xposition Yposition Zposition Yrotation Xrotation Zrotation 
							JOINT RightForeArm
							{
								OFFSET -26.5 0 0
								CHANNELS 6 Xposition Yposition Zposition Yrotation Xrotation Zrotation 
								JOINT RightHand
								{
									OFFSET -26 0 0
									CHANNELS 6 Xposition Yposition Zposition Yrotation Xrotation Zrotation 
									JOINT RightHandThumb1
									{
										OFFSET -2.489 0.19 3.121
										CHANNELS 6 Xposition Yposition Zposition Yrotation Xrotation Zrotation 
										JOINT RightHandThumb2
										{
											OFFSET -3.683 0 0
											CHANNELS 6 Xposition Yposition Zposition Yrotation Xrotation Zrotation 
											JOINT RightHandThumb3
											{
												OFFSET -2.558 0 0
												CHANNELS 6 Xposition Yposition Zposition Yrotation Xrotation Zrotation 
												End Site
												{
													OFFSET -2.194 0 0
												}
											}
										}
									}
									JOINT RightInHandIndex
									{
										OFFSET -3.224 0.508 1.978
										CHANNELS 6 Xposition Yposition Zposition Yrotation Xrotation Zrotation 
										JOINT RightHandIndex1
										{
											OFFSET -5.217 -0.091 0.999
											CHANNELS 6 Xposition Yposition Zposition Yrotation Xrotation Zrotation 
											JOINT RightHandIndex2
											{
												OFFSET -3.619 0 0
												CHANNELS 6 Xposition Yposition Zposition Yrotation Xrotation Zrotation 
												JOINT RightHandIndex3
												{
													OFFSET -2.052 0 0
													CHANNELS 6 Xposition Yposition Zposition Yrotation Xrotation Zrotation 
													End Site
													{
														OFFSET -1.805 0 0
													}
												}
											}
										}
									}
									JOINT RightInHandMiddle
									{
										OFFSET -3.382 0.517 0.757
										CHANNELS 6 Xposition Yposition Zposition Yrotation Xrotation Zrotation 
										JOINT RightHandMiddle1
										{
											OFFSET -5.174 -0.084 0.314
											CHANNELS 6 Xposition Yposition Zposition Yrotation Xrotation Zrotation 
											JOINT RightHandMiddle2
											{
												OFFSET -3.949 0 0
												CHANNELS 6 Xposition Yposition Zposition Yrotation Xrotation Zrotation 
												JOINT RightHandMiddle3
												{
													OFFSET -2.476 0 0
													CHANNELS 6 Xposition Yposition Zposition Yrotation Xrotation Zrotation 
													End Site
													{
														OFFSET -1.975 0 0
													}
												}
											}
										}
									}
									JOINT RightInHandRing
									{
										OFFSET -3.365 0.538 -0.129
										CHANNELS 6 Xposition Yposition Zposition Yrotation Xrotation Zrotation 
										JOINT RightHandRing1
										{
											OFFSET -4.635 -0.022 -0.479
											CHANNELS 6 Xposition Yposition Zposition Yrotation Xrotation Zrotation 
											JOINT RightHandRing2
											{
												OFFSET -3.442 0 0
												CHANNELS 6 Xposition Yposition Zposition Yrotation Xrotation Zrotation 
												JOINT RightHandRing3
												{
													OFFSET -2.388 0 0
													CHANNELS 6 Xposition Yposition Zposition Yrotation Xrotation Zrotation 
													End Site
													{
														OFFSET -1.857 0 0
													}
												}
											}
										}
									}
									JOINT RightInHandPinky
									{
										OFFSET -3.161 0.469 -1.202
										CHANNELS 6 Xposition Yposition Zposition Yrotation Xrotation Zrotation 
										JOINT RightHandPinky1
										{
											OFFSET -4.141 -0.022 -1.091
											CHANNELS 6 Xposition Yposition Zposition Yrotation Xrotation Zrotation 
											JOINT RightHandPinky2
											{
												OFFSET -2.757 0 0
												CHANNELS 6 Xposition Yposition Zposition Yrotation Xrotation Zrotation 
												JOINT RightHandPinky3
												{
													OFFSET -1.742 0 0
													CHANNELS 6 Xposition Yposition Zposition Yrotation Xrotation Zrotation 
													End Site
													{
														OFFSET -1.645 0 0
													}
												}
											}
										}
									}
								}
							}
						}
					}
					JOINT LeftShoulder
					{
						OFFSET 3.2 6.925 0
						CHANNELS 6 Xposition Yposition Zposition Yrotation Xrotation Zrotation 
						JOINT LeftArm
						{
							OFFSET 12.8 0 0
							CHANNELS 6 Xposition Yposition Zposition Yrotation Xrotation Zrotation 
							JOINT LeftForeArm
							{
								OFFSET 26.5 0 0
								CHANNELS 6 Xposition Yposition Zposition Yrotation Xrotation Zrotation 
								JOINT LeftHand
								{
									OFFSET 26 0 0
									CHANNELS 6 Xposition Yposition Zposition Yrotation Xrotation Zrotation 
									JOINT LeftHandThumb1
									{
										OFFSET 2.489 0.19 3.121
										CHANNELS 6 Xposition Yposition Zposition Yrotation Xrotation Zrotation 
										JOINT LeftHandThumb2
										{
											OFFSET 3.683 0 0
											CHANNELS 6 Xposition Yposition Zposition Yrotation Xrotation Zrotation 
											JOINT LeftHandThumb3
											{
												OFFSET 2.558 0 0
												CHANNELS 6 Xposition Yposition Zposition Yrotation Xrotation Zrotation 
												End Site
												{
													OFFSET 2.194 0 0
												}
											}
										}
									}
									JOINT LeftInHandIndex
									{
										OFFSET 3.224 0.508 1.978
										CHANNELS 6 Xposition Yposition Zposition Yrotation Xrotation Zrotation 
										JOINT LeftHandIndex1
										{
											OFFSET 5.217 -0.091 0.999
											CHANNELS 6 Xposition Yposition Zposition Yrotation Xrotation Zrotation 
											JOINT LeftHandIndex2
											{
												OFFSET 3.619 0 0
												CHANNELS 6 Xposition Yposition Zposition Yrotation Xrotation Zrotation 
												JOINT LeftHandIndex3
												{
													OFFSET 2.052 0 0
													CHANNELS 6 Xposition Yposition Zposition Yrotation Xrotation Zrotation 
													End Site
													{
														OFFSET 1.805 0 0
													}
												}
											}
										}
									}
									JOINT LeftInHandMiddle
									{
										OFFSET 3.382 0.517 0.757
										CHANNELS 6 Xposition Yposition Zposition Yrotation Xrotation Zrotation 
										JOINT LeftHandMiddle1
										{
											OFFSET 5.174 -0.084 0.314
											CHANNELS 6 Xposition Yposition Zposition Yrotation Xrotation Zrotation 
											JOINT LeftHandMiddle2
											{
												OFFSET 3.949 0 0
												CHANNELS 6 Xposition Yposition Zposition Yrotation Xrotation Zrotation 
												JOINT LeftHandMiddle3
												{
													OFFSET 2.476 0 0
													CHANNELS 6 Xposition Yposition Zposition Yrotation Xrotation Zrotation 
													End Site
													{
														OFFSET 1.975 0 0
													}
												}
											}
										}
									}
									JOINT LeftInHandRing
									{
										OFFSET 3.365 0.538 -0.129
										CHANNELS 6 Xposition Yposition Zposition Yrotation Xrotation Zrotation 
										JOINT LeftHandRing1
										{
											OFFSET 4.635 -0.022 -0.479
											CHANNELS 6 Xposition Yposition Zposition Yrotation Xrotation Zrotation 
											JOINT LeftHandRing2
											{
												OFFSET 3.442 0 0
												CHANNELS 6 Xposition Yposition Zposition Yrotation Xrotation Zrotation 
												JOINT LeftHandRing3
												{
													OFFSET 2.388 0 0
													CHANNELS 6 Xposition Yposition Zposition Yrotation Xrotation Zrotation 
													End Site
													{
														OFFSET 1.857 0 0
													}
												}
											}
										}
									}
									JOINT LeftInHandPinky
									{
										OFFSET 3.161 0.469 -1.202
										CHANNELS 6 Xposition Yposition Zposition Yrotation Xrotation Zrotation 
										JOINT LeftHandPinky1
										{
											OFFSET 4.141 -0.022 -1.091
											CHANNELS 6 Xposition Yposition Zposition Yrotation Xrotation Zrotation 
											JOINT LeftHandPinky2
											{
												OFFSET 2.757 0 0
												CHANNELS 6 Xposition Yposition Zposition Yrotation Xrotation Zrotation 
												JOINT LeftHandPinky3
												{
													OFFSET 1.742 0 0
													CHANNELS 6 Xposition Yposition Zposition Yrotation Xrotation Zrotation 
													End Site
													{
														OFFSET 1.645 0 0
													}
												}
											}
										}
									}
								}
							}
						}
					}
				}
			}
		}
	}
}
MOTION
Frames: 4
Frame Time: 0.008
21.1523 90.2758 14.6456 143.219 -0.351716 -2.26704 -9.29635 -1.59069 -0.119625 -10.1491 -18.1972 -5.77015 -0.083564 -41.8708 -0.107359 8.71993 20.079 6.14427 -0.043312 -40.469 -0.137847 0.00278137 -2.39191 -0.0207603 9.22976 -1.60004 0.0298974 23.9755 -17.2409 24.484 -0.00411631 -41.8733 0.0446252 9.88851 24.9474 -1.35866 -1.60318 -42.8976 -0.0205734 0.00444937 -2.39411 0.000909524 0.0727615 14.3066 -0.00799384 -1.29728 14.2297 2.76817 0.0462294 9.72163 -0.00331588 -0.279204 3.60606 0.718766 0.0230941 10.1187 -0.0205116 -0.343481 5.91421 1.1828 0.0460425 9.71826 -0.00925573 -0.44569 -0.0266611 0.0498099 -0.102066 10.3935 -0.0632628 -0.446743 -0.0260407 0.0498381 -0.106325 9.47117 -0.0438031 -8.06433 -0.353694 0.924357 -3.18767 6.948 -0.0266814 0.648835 -0.545045 -3.81798 -12.7919 0.0466969 -0.072081 -30.1301 -11.1969 85.3596 -26.4921 -0.0793854 0.0177614 70.3751 13.9088 41.511 -26.0144 -0.023724 0.0415654 0.273485 -7.49312 -23.5722 -2.48905 0.190105 3.12053 21.86 -0 30 -3.68274 0 0 -10 -0 0 -2.55832 0 0 -10 -0 0 -3.22368 0.508421 1.97842 0 -0 0 -5.21684 -0.0913684 0.999158 2.55 -0 20 -3.61937 0 0 0 -0 24 -2.05211 0 0 0 -0 20 -3.38211 0.517263 0.756737 0 -0 0 -5.1741 -0.084 0.313895 0 -0 20 -3.94947 0 0 0 -0 24 -2.47579 0 0 0 -0 20 -3.36516 0.537895 -0.128947 0 -0 0 -4.63474 -0.0221053 -0.478947 -3 -0 20 -3.44238 0 0 0 -0 24 -2.38811 0 0 0 -0 20 -3.16105 0.469368 -1.20179 0 -0 0 -4.14105 -0.0221053 -1.09053 -8.83 -0 20 -2.75653 0 0 0 -0 24 -1.74189 0 0 0 -0 20 3.20466 6.93479 -0.00111484 -7.93667 -6.99077 -10.3624 12.7423 -0.00297939 0.00386362 3.68384 -21.4022 -85.6777 26.5352 -0.0253733 -0.0593689 -76.3822 -16.8864 -6.25683 25.9668 -0.00178771 -0.0510317 -6.00119 -14.2636 35.084 2.48905 0.190105 3.12053 -21.86 -0 -30 3.68274 0 0 10 -0 0 2.55832 0 0 10 -0 0 3.22368 0.508421 1.97842 0 -0 0 5.21684 -0.0913684 0.999158 -2.55 -0 -20 3.61937 0 0 0 -0 -24 2.05211 0 0 0 -0 -20 3.38211 0.517263 0.756737 0 -0 0 5.1741 -0.084 0.313895 0 -0 -20 3.94947 0 0 0 -0 -24 2.47579 0 0 0 -0 -20 3.36516 0.537895 -0.128947 0 -0 0 4.63474 -0.0221053 -0.478947 3 -0 -20 3.44238 0 0 0 -0 -24 2.38811 0 0 0 -0 -20 3.16105 0.469368 -1.20179 0 -0 0 4.14105 -0.0221053 -1.09053 8.83 -0 -20 2.75653 0 0 0 -0 -24 1.74189 0 0 0 -0 -20 
21.0624 90.2897 14.6036 143.409 -0.244978 -2.20794 -9.29128 -1.59363 -0.125289 -10.2962 -18.2422 -5.85779 -0.0710032 -41.8664 -0.122424 8.69439 20.0023 6.06693 -0.0498885 -40.4587 -0.0883304 0.00277982 -2.39191 -0.0207614 9.23315 -1.59971 0.0254078 24.0345 -17.5248 24.312 0.0061806 -41.8733 0.0433569 9.70378 25.1714 -1.39957 -1.63318 -42.9064 -0.0201788 0.00444845 -2.39411 0.000911411 0.0738616 14.3063 -0.00648848 -1.3451 14.1704 2.81561 0.0432721 9.72152 -0.00336106 -0.290559 3.5918 0.731574 0.017712 10.1186 -0.0235852 -0.360682 5.89265 1.20369 0.0415242 9.71835 -0.0109795 -0.458571 -0.0288427 0.0562468 -0.112019 10.3941 -0.0642024 -0.459676 -0.0281573 0.0562832 -0.122755 9.47175 -0.0423393 -8.2997 -0.372596 1.0431 -3.18986 6.9441 -0.0239512 0.660378 -0.54074 -3.87671 -12.7917 0.0426074 -0.0684285 -30.1879 -11.1636 85.4517 -26.4907 -0.0798446 0.0185164 69.9428 13.7329 41.2948 -26.014 -0.0229731 0.0425567 0.323863 -7.51497 -23.6201 -2.48905 0.190105 3.12053 21.86 -0 30 -3.68274 0 0 -10 -0 0 -2.55832 0 0 -10 -0 0 -3.22368 0.508421 1.97842 0 -0 0 -5.21684 -0.0913684 0.999158 2.55 -0 20 -3.61937 0 0 0 -0 24 -2.05211 0 0 0 -0 20 -3.38211 0.517263 0.756737 0 -0 0 -5.1741 -0.084 0.313895 0 -0 20 -3.94947 0 0 0 -0 24 -2.47579 0 0 0 -0 20 -3.36516 0.537895 -0.128947 0 -0 0 -4.63474 -0.0221053 -0.478947 -3 -0 20 -3.44238 0 0 0 -0 24 -2.38811 0 0 0 -0 20 -3.16105 0.469368 -1.20179 0 -0 0 -4.14105 -0.0221053 -1.09053 -8.83 -0 20 -2.75653 0 0 0 -0 24 -1.74189 0 0 0 -0 20 3.20304 6.93632 -0.000461732 -7.85479 -7.00083 -10.431 12.7756 0.0127314 0.0352373 3.53445 -21.1403 -85.9185 26.534 0.00532354 -0.0237284 -76.5284 -16.6909 -6.24591 25.9673 3.41315e-005 -0.0477929 -6.00183 -14.3282 35.0577 2.48905 0.190105 3.12053 -21.86 -0 -30 3.68274 0 0 10 -0 0 2.55832 0 0 10 -0 0 3.22368 0.508421 1.97842 0 -0 0 5.21684 -0.0913684 0.999158 -2.55 -0 -20 3.61937 0 0 0 -0 -24 2.05211 0 0 0 -0 -20 3.38211 0.517263 0.756737 0 -0 0 5.1741 -0.084 0.313895 0 -0 -20 3.94947 0 0 0 -0 -24 2.47579 0 0 0 -0 -20 3.36516 0.537895 -0.128947 0 -0 0 4.63474 -0.0221053 -0.478947 3 -0 -20 3.44238 0 0 0 -0 -24 2.38811 0 0 0 -0 -20 3.16105 0.469368 -1.20179 0 -0 0 4.14105 -0.0221053 -1.09053 8.83 -0 -20 2.75653 0 0 0 -0 -24 1.74189 0 0 0 -0 -20 
20.9721 90.2991 14.562 143.615 -0.13681 -2.15691 -9.28468 -1.59539 -0.123558 -10.473 -18.2841 -5.94769 -0.0570935 -41.8638 -0.124018 8.65194 19.9492 6.00356 -0.0580253 -40.4493 -0.0360468 0.00278304 -2.39191 -0.0207645 9.23823 -1.59765 0.0202638 24.0348 -17.8209 24.147 0.0168718 -41.8711 0.0387323 9.54663 25.4245 -1.43011 -1.65179 -42.9164 -0.0209852 0.00444381 -2.3941 0.000904856 0.0743497 14.306 -0.00434747 -1.36043 14.1067 2.89196 0.0425382 9.7213 -0.00273346 -0.293455 3.57589 0.750831 0.0160874 10.1184 -0.025573 -0.362763 5.86775 1.23558 0.0416605 9.71842 -0.0112674 -0.478145 -0.032409 0.0664292 -0.118222 10.3948 -0.0651305 -0.479334 -0.031638 0.0664758 -0.127426 9.47255 -0.0407476 -8.65817 -0.40307 1.23114 -3.18948 6.94383 -0.0251826 0.671988 -0.516916 -3.9342 -12.7932 0.0423745 -0.0684942 -30.2677 -11.1621 85.5275 -26.4907 -0.079266 0.0208233 69.4751 13.5239 41.0397 -26.0139 -0.0217444 0.042249 0.349998 -7.5324 -23.6577 -2.48905 0.190105 3.12053 21.86 -0 30 -3.68274 0 0 -10 -0 0 -2.55832 0 0 -10 -0 0 -3.22368 0.508421 1.97842 0 -0 0 -5.21684 -0.0913684 0.999158 2.55 -0 20 -3.61937 0 0 0 -0 24 -2.05211 0 0 0 -0 20 -3.38211 0.517263 0.756737 0 -0 0 -5.1741 -0.084 0.313895 0 -0 20 -3.94947 0 0 0 -0 24 -2.47579 0 0 0 -0 20 -3.36516 0.537895 -0.128947 0 -0 0 -4.63474 -0.0221053 -0.478947 -3 -0 20 -3.44238 0 0 0 -0 24 -2.38811 0 0 0 -0 20 -3.16105 0.469368 -1.20179 0 -0 0 -4.14105 -0.0221053 -1.09053 -8.83 -0 20 -2.75653 0 0 0 -0 24 -1.74189 0 0 0 -0 20 3.20377 6.93831 0.000473507 -7.81857 -6.99831 -10.5218 12.7757 0.0138016 0.0347962 3.39595 -21.0384 -86.0242 26.534 0.00312674 -0.0245519 -76.5028 -16.6306 -6.27823 25.968 0.000692172 -0.0470727 -5.99886 -14.3971 35.0302 2.48905 0.190105 3.12053 -21.86 -0 -30 3.68274 0 0 10 -0 0 2.55832 0 0 10 -0 0 3.22368 0.508421 1.97842 0 -0 0 5.21684 -0.0913684 0.999158 -2.55 -0 -20 3.61937 0 0 0 -0 -24 2.05211 0 0 0 -0 -20 3.38211 0.517263 0.756737 0 -0 0 5.1741 -0.084 0.313895 0 -0 -20 3.94947 0 0 0 -0 -24 2.47579 0 0 0 -0 -20 3.36516 0.537895 -0.128947 0 -0 0 4.63474 -0.0221053 -0.478947 3 -0 -20 3.44238 0 0 0 -0 -24 2.38811 0 0 0 -0 -20 3.16105 0.469368 -1.20179 0 -0 0 4.14105 -0.0221053 -1.09053 8.83 -0 -20 2.75653 0 0 0 -0 -24 1.74189 0 0 0 -0 -20 
20.8764 90.3025 14.512 143.847 -0.0348962 -2.10248 -9.19055 -1.60533 -0.098474 -10.2 -18.2979 -6.49348 0.0428285 -41.8601 -0.123701 8.2667 19.8809 6.26305 -0.0317783 -40.4468 -0.00624461 0.0027735 -2.39191 -0.02076 9.23452 -1.60087 0.0205356 23.9908 -18.1179 24.006 0.0136877 -41.8704 0.0363571 9.40814 25.7141 -1.46493 -1.67213 -42.9189 -0.0252156 0.00444406 -2.3941 0.000901689 0.0759692 14.3057 -0.00344875 -1.37995 14.049 2.97222 0.0421917 9.72126 -0.00329545 -0.297319 3.56161 0.771165 0.0145304 10.1181 -0.0284776 -0.366245 5.8455 1.2692 0.0418783 9.7183 -0.0127156 -0.499171 -0.0365921 0.0762766 -0.12381 10.3953 -0.0667625 -0.500447 -0.0357201 0.0763372 -0.132257 9.47337 -0.0391743 -9.04361 -0.443011 1.41437 -3.18911 6.94571 -0.0268563 0.698181 -0.492575 -3.97186 -12.7937 0.0440175 -0.0666331 -30.3504 -11.1811 85.5776 -26.49 -0.0807322 0.025201 69.0105 13.3238 40.7603 -26.0124 -0.0183415 0.0311638 0.386146 -7.41355 -23.6959 -2.48905 0.190105 3.12053 21.86 -0 30 -3.68274 0 0 -10 -0 0 -2.55832 0 0 -10 -0 0 -3.22368 0.508421 1.97842 0 -0 0 -5.21684 -0.0913684 0.999158 2.55 -0 20 -3.61937 0 0 0 -0 24 -2.05211 0 0 0 -0 20 -3.38211 0.517263 0.756737 0 -0 0 -5.1741 -0.084 0.313895 0 -0 20 -3.94947 0 0 0 -0 24 -2.47579 0 0 0 -0 20 -3.36516 0.537895 -0.128947 0 -0 0 -4.63474 -0.0221053 -0.478947 -3 -0 20 -3.44238 0 0 0 -0 24 -2.38811 0 0 0 -0 20 -3.16105 0.469368 -1.20179 0 -0 0 -4.14105 -0.0221053 -1.09053 -8.83 -0 20 -2.75653 0 0 0 -0 24 -1.74189 0 0 0 -0 20 3.20279 6.93493 0.00187243 -7.77552 -6.94958 -10.5898 12.7775 0.00986193 0.0354915 3.26203 -20.9775 -86.1565 26.5335 0.00343997 -0.0250478 -76.4751 -16.5779 -6.31447 25.9695 0.000249196 -0.0459033 -5.9877 -14.4648 35.0093 2.48905 0.190105 3.12053 -21.86 -0 -30 3.68274 0 0 10 -0 0 2.55832 0 0 10 -0 0 3.22368 0.508421 1.97842 0 -0 0 5.21684 -0.0913684 0.999158 -2.55 -0 -20 3.61937 0 0 0 -0 -24 2.05211 0 0 0 -0 -20 3.38211 0.517263 0.756737 0 -0 0 5.1741 -0.084 0.313895 0 -0 -20 3.94947 0 0 0 -0 -24 2.47579 0 0 0 -0 -20 3.36516 0.537895 -0.128947 0 -0 0 4.63474 -0.0221053 -0.478947 3 -0 -20 3.44238 0 0 0 -0 -24 2.38811 0 0 0 -0 -20 3.16105 0.469368 -1.20179 0 -0 0 4.14105 -0.0221053 -1.09053 8.83 -0 -20 2.75653 0 0 0 -0 -24 1.74189 0 0 0 -0 -20 
